<?xml version="1.0" standalone="no"?>
<!DOCTYPE svg PUBLIC "-//W3C//DTD SVG 20010904//EN"
 "http://www.w3.org/TR/2001/REC-SVG-20010904/DTD/svg10.dtd">
<svg version="1.0" xmlns="http://www.w3.org/2000/svg"
 width="904.000000pt" height="1176.000000pt" viewBox="0 0 904.000000 1176.000000"
 preserveAspectRatio="xMidYMid meet">

<g transform="translate(0.000000,1176.000000) scale(0.100000,-0.100000)"
fill="#000000" stroke="none">
<path d="M40 11718 c0 -2 -1 -2631 -3 -5844 l-2 -5841 635 -6 c711 -7 8348 -2
8355 5 7 7 6 11668 -1 11679 -4 8 -8984 14 -8984 7z m890 -118 l0 -90 -345 0
-345 0 0 -2472 0 -2473 2362 2 2363 3 3 30 3 30 90 0 90 0 -3 -112 -3 -113
-110 -6 c-60 -4 -1164 -7 -2452 -8 l-2343 -1 0 -3080 0 -3080 270 0 270 0 0
-90 0 -90 -360 0 -360 0 0 5820 0 5820 435 0 435 0 0 -90z m1350 80 c0 -7
-227 -10 -660 -10 -433 0 -660 3 -660 10 0 7 227 10 660 10 433 0 660 -3 660
-10z m630 -80 l0 -90 -300 0 -300 0 0 90 0 90 300 0 300 0 0 -90z m1350 80 c0
-7 -227 -10 -660 -10 -433 0 -660 3 -660 10 0 7 227 10 660 10 433 0 660 -3
660 -10z m3870 -80 l0 -90 -1490 0 -1490 0 0 -1798 0 -1799 80 5 80 5 0 -92 0
-91 -70 0 -70 0 0 50 0 50 -100 0 -100 0 0 1835 0 1835 -340 0 -340 0 0 90 0
90 1920 0 1920 0 0 -90z m535 80 c-4 -6 -100 -10 -256 -10 -159 0 -249 4 -249
10 0 6 92 10 256 10 167 0 253 -3 249 -10z m335 -1865 l0 -1875 -54 0 c-29 0
-68 -3 -85 -6 l-31 -6 0 1791 0 1791 -70 0 -70 0 0 90 0 90 155 0 155 0 0
-1875z m-7950 1785 l0 -60 -45 0 -45 0 0 60 0 60 45 0 45 0 0 -60z m1230 0 l0
-60 -611 0 -610 0 3 28 3 27 563 0 c309 0 562 3 562 8 0 4 -254 7 -565 7
l-565 0 0 25 0 25 610 0 610 -1 0 -59z m750 0 l0 -60 -45 0 -45 0 0 60 0 60
45 0 45 0 0 -60z m1230 0 l0 -60 -611 0 -610 0 3 28 3 27 563 0 c309 0 562 3
562 8 0 4 -254 7 -565 7 l-565 0 0 25 0 25 610 0 610 0 0 -60z m4370 35 l0
-25 -220 0 c-203 0 -220 -1 -220 -17 0 -13 3 -15 8 -5 7 9 57 12 218 10 l209
-3 3 -27 3 -28 -235 0 -236 0 0 59 0 60 235 1 235 1 0 -26z m40 -35 c0 -47 -3
-60 -15 -60 -12 0 -15 13 -15 60 0 47 3 60 15 60 12 0 15 -13 15 -60z m-6390
-80 c0 -7 -227 -10 -660 -10 -433 0 -660 3 -660 10 0 7 227 10 660 10 433 0
660 -3 660 -10z m1980 0 c0 -7 -227 -10 -660 -10 -433 0 -660 3 -660 10 0 7
227 10 660 10 433 0 660 -3 660 -10z m4405 0 c-4 -6 -100 -10 -256 -10 -159 0
-249 4 -249 10 0 6 92 10 256 10 167 0 253 -3 249 -10z m-3725 -2430 l0 -2400
-482 2 -483 3 -6 65 -6 65 1 -70 1 -70 488 -3 c404 -2 487 -5 487 -16 0 -7 3
-28 6 -45 l6 -31 -2346 0 -2346 0 0 2450 0 2450 2340 0 2340 0 0 -2400z m3860
625 l0 -1775 -1815 0 -1815 0 0 1775 0 1775 1815 0 1815 0 0 -1775z m-3430
-1851 c0 -38 -3 -45 -17 -42 -22 4 -30 62 -13 84 19 22 30 7 30 -42z m1080 6
l0 -50 -535 0 -535 0 0 43 c0 24 3 47 7 50 3 4 244 7 535 7 l528 0 0 -50z m50
-6 c0 -38 -3 -45 -17 -42 -22 4 -31 77 -12 89 21 13 29 0 29 -47z m280 -34 l0
-90 -130 0 -130 0 0 83 c0 46 3 87 7 90 3 4 62 7 130 7 l123 0 0 -90z m203 84
l77 -7 0 -83 0 -84 -125 0 -125 0 0 83 c0 46 3 87 7 90 8 9 68 9 166 1z m331
0 c13 -5 16 -23 16 -90 l0 -84 -130 0 -130 0 0 84 0 85 53 4 c98 6 175 7 191
1z m1626 -339 l0 -345 -55 0 -55 0 -2 253 -3 252 -70 3 c-40 2 -73 8 -77 15
-6 9 -8 9 -8 0 0 -10 -59 -13 -260 -13 l-260 0 0 85 0 85 331 0 c182 -1 334 2
337 5 3 3 32 5 64 5 l58 0 0 -345z m60 0 l0 -345 -25 0 -25 0 0 339 c0 262 3
340 13 344 37 16 37 17 37 -338z m-1400 250 l0 -85 -130 0 -130 0 0 85 0 85
130 0 130 0 0 -85z m270 0 l0 -85 -130 0 -130 0 0 85 0 85 130 0 130 0 0 -85z
m270 0 l0 -85 -130 0 -130 0 0 85 0 85 130 0 130 0 0 -85z m-3100 -30 c0 -10
-11 -15 -35 -15 -24 0 -35 5 -35 15 0 10 11 15 35 15 24 0 35 -5 35 -15z m110
0 c0 -11 -12 -15 -50 -15 -38 0 -50 4 -50 15 0 11 12 15 50 15 38 0 50 -4 50
-15z m220 -20 c0 -41 -26 -49 -36 -11 -7 29 1 46 22 46 9 0 14 -11 14 -35z
m1080 0 l0 -35 -535 0 -535 0 0 35 0 35 535 0 535 0 0 -35z m50 0 c0 -28 -4
-35 -20 -35 -16 0 -20 7 -20 35 0 28 4 35 20 35 16 0 20 -7 20 -35z m-1460
-546 l0 -540 -32 3 -33 3 -3 538 -2 537 35 0 35 0 0 -541z m108 4 l-3 -538
-45 0 -45 0 -3 538 -2 537 50 0 50 0 -2 -537z m226 455 c12 -55 15 -60 12 -20
l-4 42 534 0 534 0 -2 -495 c-2 -272 0 -495 5 -495 4 0 7 223 7 495 l0 495
300 0 300 0 0 -605 0 -604 -132 -3 -133 -3 -6 -50 c-3 -28 -5 -292 -4 -588 l1
-537 -788 0 -788 0 0 540 c0 533 0 540 -20 540 -20 0 -20 7 -20 655 l0 655
100 0 c95 0 100 -1 104 -22z m1956 -583 l0 -605 -130 0 -130 0 0 605 0 605
130 0 130 0 0 -605z m270 365 l0 -240 -72 -2 -73 -2 73 -3 72 -4 0 -359 0
-360 -130 0 -130 0 0 605 0 605 130 0 130 0 0 -240z m270 0 l0 -240 -130 0
-130 0 0 240 0 240 130 0 130 0 0 -240z m270 0 l0 -240 -130 0 -130 0 0 240 0
240 130 0 130 0 0 -240z m531 227 c0 -9 2 -9 6 1 3 8 26 12 64 12 l59 0 0
-240 0 -240 -325 0 -325 0 0 240 0 240 260 0 c199 0 260 -3 261 -13z m-803
-839 l2 -358 -130 0 -130 0 0 360 0 361 128 -3 127 -3 3 -357z m268 0 l2 -358
-129 0 -129 0 0 360 0 361 128 -3 127 -3 1 -357z m534 350 c0 -9 3 -9 12 0 7
7 36 12 65 12 l53 0 0 -360 0 -360 -325 0 -325 0 0 360 0 359 260 0 c192 0
260 -3 260 -11z m270 -348 l0 -360 -55 0 -55 0 0 360 0 360 55 0 55 0 0 -360z
m60 -370 l0 -730 -25 0 -25 0 0 723 c0 398 3 727 7 730 3 4 15 7 25 7 17 0 18
-29 18 -730z m-3960 175 c0 -10 -11 -15 -35 -15 -24 0 -35 5 -35 15 0 10 11
15 35 15 24 0 35 -5 35 -15z m110 0 c0 -11 -12 -15 -50 -15 -38 0 -50 4 -50
15 0 11 12 15 50 15 38 0 50 -4 50 -15z m1908 -762 l2 -583 -128 0 -128 0 1
585 0 586 125 -3 125 -3 3 -582z m270 220 l2 -363 -56 0 -57 0 19 23 c12 14 8
12 -11 -5 l-29 -27 24 -26 c25 -26 42 -27 20 0 -11 13 -6 15 39 15 l51 0 0
-210 0 -210 -130 0 -130 0 0 578 c0 318 3 582 7 586 4 3 61 5 127 4 l121 -3 3
-362z m270 0 l2 -363 -130 0 -130 0 0 358 c0 197 3 362 7 366 4 3 61 5 127 4
l121 -3 3 -362z m270 0 l2 -363 -130 0 -130 0 0 358 c0 197 3 362 7 366 4 3
61 5 127 4 l121 -3 3 -362z m267 2 l0 -360 -127 -3 -128 -3 0 366 0 366 128
-3 127 -3 0 -360z m535 353 c0 -9 3 -9 12 0 7 7 36 12 65 12 l53 0 0 -365 0
-365 -61 0 -61 0 4 105 c2 58 0 105 -4 105 -5 0 -8 -47 -8 -105 l0 -104 -260
0 -260 0 0 364 0 364 260 0 c192 0 260 -3 260 -11z m270 -353 l0 -365 -55 0
-55 0 0 365 0 365 55 0 55 0 0 -365z m-3740 245 c0 -11 -7 -20 -15 -20 -8 0
-15 9 -15 20 0 11 7 20 15 20 8 0 15 -9 15 -20z m-110 -5 c0 -9 -10 -16 -27
-16 l-28 -2 28 -4 27 -4 0 -540 0 -539 -60 0 -60 0 0 535 0 535 33 2 32 1 -32
4 c-25 3 -33 9 -33 24 0 17 7 19 60 19 47 0 60 -3 60 -15z m60 0 c0 -9 -9 -15
-25 -15 -16 0 -25 6 -25 15 0 9 9 15 25 15 16 0 25 -6 25 -15z m-4865 -28 c4
-13 5 -157 3 -320 l-3 -297 255 -1 c140 0 291 0 335 0 148 0 1073 1 1984 1
497 0 906 2 908 4 2 2 4 139 3 303 0 165 2 307 6 316 6 16 56 17 585 17 462 0
579 -3 579 -13 0 -7 -25 -17 -65 -25 -307 -58 -590 -269 -737 -549 -66 -126
-119 -282 -117 -344 0 -13 7 5 14 41 89 413 394 731 801 834 34 9 71 16 83 16
l21 0 0 -530 0 -530 -464 0 c-434 0 -465 1 -470 18 -4 13 -4 13 -3 -3 2 -20
11 -20 469 -23 l466 -2 6 -63 c4 -34 5 -1158 4 -2497 l-3 -2435 -2340 1 -2340
2 -3 3051 c-1 1993 1 3051 8 3051 5 0 12 -10 15 -23z m1150 17 c-6 -3 -9 -109
-7 -299 2 -249 0 -298 -12 -310 -12 -13 -95 -15 -554 -15 l-539 0 -12 23 c-8
16 -11 100 -9 310 2 184 -1 288 -7 291 -5 2 251 4 570 4 319 0 576 -2 570 -4z
m1157 -10 c17 -16 18 -38 18 -298 0 -270 -1 -282 -20 -299 -19 -16 -64 -17
-558 -17 -529 0 -537 0 -550 20 -9 16 -12 94 -12 315 l1 294 551 1 c501 0 553
-1 570 -16z m1173 10 c-6 -3 -9 -109 -7 -299 2 -249 0 -298 -12 -310 -12 -13
-95 -15 -554 -15 l-539 0 -12 23 c-8 16 -11 100 -9 310 2 184 -1 288 -7 291
-5 2 251 4 570 4 319 0 576 -2 570 -4z m-2316 -610 c-6 -8 -17 -14 -23 -13 -7
0 -6 2 2 6 9 3 12 74 12 302 0 164 3 301 8 305 12 13 14 -585 1 -600z m3701
56 l0 -540 -25 0 -25 0 0 540 0 540 25 0 25 0 0 -540z m50 30 c0 -447 -2 -510
-15 -510 -13 0 -15 63 -15 510 0 447 2 510 15 510 13 0 15 -63 15 -510z m3740
-420 l0 -340 -24 0 c-13 0 -37 -3 -54 -6 -28 -6 -31 -4 -34 22 l-3 29 -338 3
-338 2 3 88 3 87 119 3 c74 2 123 -1 131 -8 9 -8 15 -8 20 0 4 6 53 10 126 10
101 0 119 -2 119 -16 0 -14 2 -14 17 1 12 13 30 16 77 13 l61 -3 3 228 2 227
55 0 55 0 0 -340z m60 0 l0 -340 -25 0 -25 0 0 333 c0 184 3 337 7 340 3 4 15
7 25 7 17 0 18 -17 18 -340z m-1400 120 l0 -210 -130 0 -130 0 0 210 0 210
130 0 130 0 0 -210z m270 0 l0 -210 -130 0 -130 0 0 210 0 210 130 0 130 0 0
-210z m270 0 l0 -210 -130 0 -130 0 0 210 0 210 130 0 130 0 0 -210z m660 0
l0 -210 -60 0 c-41 0 -60 4 -61 13 0 10 -2 10 -6 0 -3 -10 -66 -13 -264 -13
l-259 0 0 210 0 210 325 0 325 -1 0 -209z m-3600 -250 c0 -11 -7 -20 -15 -20
-27 0 -18 30 13 39 1 1 2 -8 2 -19z m130 -70 l0 -90 -90 0 -90 0 0 -577 c0
-318 0 -1417 0 -2443 l0 -1865 930 -3 930 -2 0 -90 0 -90 -1580 0 -1580 0 0
90 0 90 560 0 560 0 0 1475 c0 1306 2 1474 15 1469 8 -4 15 -2 15 4 0 6 -6 12
-12 14 -19 7 -24 858 -6 870 10 6 10 8 1 8 -10 0 -13 119 -13 560 l0 560 83 0
c45 0 99 3 120 6 36 6 37 8 37 49 0 49 5 53 73 54 l47 1 0 -90z m60 40 c0 -38
-4 -50 -15 -50 -11 0 -15 11 -15 43 0 24 3 47 7 50 16 17 23 3 23 -43z m1088
-2 l3 -48 -540 0 -541 0 0 44 c0 26 5 46 13 49 6 3 248 5 537 4 l525 -2 3 -47z
m42 2 c0 -38 -4 -50 -15 -50 -11 0 -15 11 -15 43 0 24 3 47 7 50 16 17 23 3
23 -43z m262 43 c2 -5 2 -45 0 -90 l-4 -83 -114 0 -114 0 0 83 c0 46 3 87 7
90 9 10 221 9 225 0z m276 -85 l3 -88 -125 0 -124 0 -4 83 c-2 45 -2 86 0 90
2 4 58 6 125 5 l122 -3 3 -87z m270 0 l3 -88 -131 0 -130 0 0 83 c0 46 3 87 7
91 4 3 61 5 127 4 l121 -3 3 -87z m270 0 l3 -88 -131 0 -130 0 0 83 c0 46 3
87 7 91 4 3 61 5 127 4 l121 -3 3 -87z m270 0 l3 -88 -131 0 -130 0 0 83 c0
46 3 87 7 91 4 3 61 5 127 4 l121 -3 3 -87z m270 0 l3 -88 -131 0 -130 0 0 83
c0 46 3 87 7 91 4 3 61 5 127 4 l121 -3 3 -87z m-3048 27 c0 -12 -13 -15 -60
-15 -47 0 -60 3 -60 15 0 12 13 15 60 15 47 0 60 -3 60 -15z m60 0 c0 -9 -9
-15 -25 -15 -16 0 -25 6 -25 15 0 9 9 15 25 15 16 0 25 -6 25 -15z m50 -5 c0
-11 -7 -20 -15 -20 -8 0 -15 9 -15 20 0 11 7 20 15 20 8 0 15 -9 15 -20z m190
-75 c0 -24 -5 -35 -15 -35 -10 0 -15 11 -15 35 0 24 5 35 15 35 10 0 15 -11
15 -35z m1090 0 l0 -35 -540 0 -540 0 0 35 0 35 540 0 540 0 0 -35z m40 0 c0
-24 -5 -35 -15 -35 -10 0 -15 11 -15 35 0 24 5 35 15 35 10 0 15 -11 15 -35z
m-1118 -97 l1 -33 4 33 4 32 535 0 535 0 -3 -494 c-2 -272 0 -492 5 -489 4 2
7 224 7 494 l0 489 144 0 c132 0 145 -2 151 -19 5 -16 21 -19 158 -24 83 -3
536 -4 1005 -3 l852 1 0 -2395 0 -2395 -1813 0 -1812 0 -2 2418 -3 2417 115 0
115 0 2 -32z m1658 23 c0 -9 -119 -21 -206 -21 -43 0 -52 3 -48 15 5 12 29 15
130 15 68 0 124 -4 124 -9z m270 -6 c0 -17 -71 -20 -192 -8 -112 10 -77 23 62
23 109 0 130 -2 130 -15z m270 -1 c0 -14 -8 -16 -46 -10 -26 3 -84 6 -130 6
-49 0 -84 4 -84 10 0 6 50 10 130 10 114 0 130 -2 130 -16z m270 6 c0 -5 -17
-10 -38 -10 -22 0 -80 -3 -130 -6 -81 -6 -92 -5 -92 10 0 14 16 16 130 16 80
0 130 -4 130 -10z m270 1 c0 -14 -39 -21 -121 -21 -86 0 -139 8 -139 21 0 5
59 9 130 9 72 0 130 -4 130 -9z m660 -4 c0 -9 -60 -12 -248 -11 -355 1 -402 3
-402 14 0 7 112 10 325 10 247 -1 325 -4 325 -13z m146 -37 l54 0 0 -2495 0
-2495 -310 0 -310 0 0 90 0 90 225 0 225 0 0 2411 0 2412 31 -7 c17 -3 56 -6
85 -6z m-6821 -4820 c-4 -7 -237 -10 -666 -10 -433 0 -659 3 -659 10 0 7 229
10 666 10 441 0 663 -3 659 -10z m345 -80 l0 -90 -160 0 -160 0 0 90 0 90 160
0 160 0 0 -90z m1350 80 c0 -7 -227 -10 -660 -10 -433 0 -660 3 -660 10 0 7
227 10 660 10 433 0 660 -3 660 -10z m4540 0 c0 -7 -226 -10 -659 -10 -429 0
-662 3 -666 10 -4 7 218 10 659 10 437 0 666 -3 666 -10z m-7460 -80 l0 -60
-50 0 -50 0 0 60 0 60 50 0 50 0 0 -60z m1120 35 l0 -25 -555 0 -555 0 0 25 0
25 555 0 555 0 0 -25z m110 -35 l0 -60 -50 0 -50 0 0 60 0 60 50 0 50 0 0 -60z
m1690 0 l0 -60 -660 0 -660 0 0 60 0 60 660 0 660 0 0 -60z m3310 0 l0 -60
-50 0 -50 0 0 60 0 60 50 0 50 0 0 -60z m1120 35 l0 -25 -555 0 -555 0 0 25 0
25 555 0 555 0 0 -25z m110 -35 l0 -60 -50 0 -50 0 0 60 0 60 50 0 50 0 0 -60z
m-6342 -32 l3 -28 -555 0 -556 0 0 23 c0 13 3 27 7 30 3 4 252 6 552 5 l546
-3 3 -27z m6232 2 l0 -30 -555 0 -555 0 0 23 c0 13 3 27 7 30 3 4 253 7 555 7
l548 0 0 -30z m-6125 -50 c4 -7 -218 -10 -659 -10 -437 0 -666 3 -666 10 0 14
1316 14 1325 0z m1695 0 c0 -7 -227 -10 -660 -10 -433 0 -660 3 -660 10 0 7
227 10 660 10 433 0 660 -3 660 -10z m4540 0 c0 -7 -227 -10 -660 -10 -433 0
-660 3 -660 10 0 7 227 10 660 10 433 0 660 -3 660 -10z"/>
<path d="M4845 7760 c-42 -11 -1 -11 50 -1 34 7 35 9 10 9 -16 0 -43 -4 -60
-8z"/>
<path d="M4788 7743 c7 -3 16 -2 19 1 4 3 -2 6 -13 5 -11 0 -14 -3 -6 -6z"/>
<path d="M4670 7712 c-194 -70 -375 -208 -505 -383 -40 -54 -125 -208 -125
-226 0 -4 22 33 49 84 131 247 334 424 594 519 50 18 85 33 77 33 -8 0 -49
-12 -90 -27z"/>
<path d="M4016 7044 c-9 -26 -16 -52 -15 -58 0 -6 9 13 20 43 10 30 17 56 15
58 -2 2 -11 -17 -20 -43z"/>
<path d="M3991 6954 c0 -11 3 -14 6 -6 3 7 2 16 -1 19 -3 4 -6 -2 -5 -13z"/>
<path d="M3977 6901 c-4 -18 -7 -43 -6 -55 1 -11 5 -1 10 24 5 25 7 49 6 55
-2 5 -7 -5 -10 -24z"/>
<path d="M5392 7600 c0 -14 2 -19 5 -12 2 6 2 18 0 25 -3 6 -5 1 -5 -13z"/>
<path d="M5401 7554 c0 -11 3 -14 6 -6 3 7 2 16 -1 19 -3 4 -6 -2 -5 -13z"/>
<path d="M6786 7553 c-3 -3 -6 -51 -6 -105 0 -80 3 -98 15 -98 12 0 15 18 15
99 0 91 -7 121 -24 104z"/>
<path d="M5411 7524 c-2 -19 35 -117 72 -191 117 -236 317 -424 558 -524 81
-33 214 -69 251 -68 12 0 -6 7 -42 14 -386 83 -686 346 -816 715 -12 36 -23
60 -23 54z"/>
<path d="M6786 7173 c-3 -3 -6 -51 -6 -105 0 -80 3 -98 15 -98 12 0 15 18 15
99 0 91 -7 121 -24 104z"/>
<path d="M6782 6688 c4 -133 22 -132 26 2 2 85 0 100 -13 100 -13 0 -15 -15
-13 -102z"/>
<path d="M6348 6733 c18 -2 45 -2 60 0 15 2 0 4 -33 4 -33 0 -45 -2 -27 -4z"/>
<path d="M8406 6631 c-4 -7 -5 -15 -2 -18 9 -9 19 4 14 18 -4 11 -6 11 -12 0z"/>
<path d="M8670 6620 c0 -19 3 -21 12 -12 9 9 9 15 0 24 -9 9 -12 7 -12 -12z"/>
<path d="M8400 6575 c0 -8 5 -15 10 -15 6 0 10 7 10 15 0 8 -4 15 -10 15 -5 0
-10 -7 -10 -15z"/>
<path d="M8670 6568 c0 -19 2 -20 10 -8 13 19 13 30 0 30 -5 0 -10 -10 -10
-22z"/>
<path d="M8400 6375 c0 -8 5 -15 10 -15 6 0 10 7 10 15 0 8 -4 15 -10 15 -5 0
-10 -7 -10 -15z"/>
<path d="M8670 6369 c0 -11 5 -17 10 -14 6 3 10 13 10 21 0 8 -4 14 -10 14 -5
0 -10 -9 -10 -21z"/>
<path d="M8400 5955 c0 -8 5 -15 10 -15 6 0 10 7 10 15 0 8 -4 15 -10 15 -5 0
-10 -7 -10 -15z"/>
<path d="M4013 5355 c0 -27 2 -38 4 -22 2 15 2 37 0 50 -2 12 -4 0 -4 -28z"/>
<path d="M370 2920 l0 -1340 88 2 87 2 -82 3 -83 4 0 1330 0 1331 80 -4 c44
-2 80 0 80 5 0 4 -38 7 -85 7 l-85 0 0 -1340z"/>
<path d="M3220 4205 l0 -55 -84 0 c-47 0 -88 5 -91 10 -16 26 -79 44 -195 56
-94 10 -335 13 -975 13 -467 -1 -875 -4 -905 -7 -30 -4 339 -5 820 -4 914 4
1129 -3 1204 -37 20 -9 78 -56 131 -104 l95 -88 0 -1052 0 -1052 -89 -82 c-49
-46 -104 -91 -122 -102 -66 -38 -207 -43 -1204 -39 -517 2 -908 -1 -870 -5 39
-4 495 -6 1015 -4 721 3 957 7 995 17 28 7 101 15 163 17 l112 4 0 -55 0 -56
90 0 90 0 0 1340 0 1340 -90 0 -90 0 0 -55z m164 -32 c8 -99 8 -2441 0 -2522
l-7 -61 -73 0 -74 0 0 1323 c0 728 3 1327 7 1330 3 4 36 7 73 7 l67 0 7 -77z
m-164 -99 l0 -65 -27 20 c-16 10 -48 40 -73 65 l-44 46 72 0 72 0 0 -66z m0
-2289 l0 -85 -92 0 -93 1 90 84 c50 46 91 84 93 85 1 0 2 -38 2 -85z"/>
<path d="M765 4187 c-33 -12 -63 -26 -66 -30 -3 -5 -41 -7 -83 -6 -42 1 -79
-1 -83 -4 -3 -4 26 -7 65 -7 55 0 72 -3 72 -14 0 -7 -32 -44 -71 -81 -39 -36
-68 -69 -65 -72 3 -3 17 8 31 26 15 17 39 39 53 50 l27 19 0 -512 0 -511 25
-50 c13 -27 25 -51 26 -53 1 -2 11 2 23 9 16 11 27 11 56 0 27 -9 48 -10 88
-2 28 6 66 13 82 15 17 2 1 1 -35 -1 -69 -5 -98 -5 -170 1 -42 3 -46 6 -67 52
l-23 49 2 500 c4 629 -8 592 180 593 64 0 125 5 135 11 26 15 -57 15 -107 0
-21 -7 -51 -8 -66 -5 -27 7 -27 8 -10 18 11 6 45 14 75 18 55 7 56 7 11 8 -25
0 -72 -9 -105 -21z"/>
<path d="M993 4164 c5 -5 191 -15 260 -14 16 0 27 -5 27 -13 0 -7 5 -18 12
-25 18 -18 36 -79 31 -106 -3 -13 -1 -31 4 -40 6 -11 8 -1 6 31 -5 76 -13 108
-36 137 -22 26 -24 27 -166 31 -79 2 -141 2 -138 -1z"/>
<path d="M4800 4019 c0 -5 5 -7 10 -4 6 3 10 8 10 11 0 2 -4 4 -10 4 -5 0 -10
-5 -10 -11z"/>
<path d="M1323 3875 c0 -56 2 -63 8 -35 4 19 4 51 0 70 -6 28 -8 21 -8 -35z"/>
<path d="M1326 3785 c-3 -9 -5 -74 -4 -143 l2 -127 5 140 c4 77 5 141 5 143
-1 2 -4 -4 -8 -13z"/>
<path d="M1323 3475 c0 -22 2 -30 4 -17 2 12 2 30 0 40 -3 9 -5 -1 -4 -23z"/>
<path d="M1322 3290 c0 -80 2 -153 6 -162 4 -10 6 42 4 115 -4 192 -9 214 -10
47z"/>
<path d="M1028 3133 c7 -3 16 -2 19 1 4 3 -2 6 -13 5 -11 0 -14 -3 -6 -6z"/>
<path d="M1110 3130 l-55 -7 50 0 c28 0 64 3 80 7 26 7 27 8 5 7 -14 0 -50 -3
-80 -7z"/>
<path d="M791 3126 c2 -2 22 -6 44 -9 27 -4 35 -3 25 3 -14 9 -79 15 -69 6z"/>
<path d="M907 3123 c18 -2 50 -2 70 0 21 2 7 4 -32 4 -38 0 -55 -2 -38 -4z"/>
<path d="M1318 3063 c-3 -23 -16 -59 -29 -79 l-22 -37 -141 5 c-83 3 -118 2
-86 -2 30 -5 94 -8 141 -9 77 -1 88 1 106 22 27 31 45 79 41 113 -3 25 -4 23
-10 -13z"/>
<path d="M730 2923 c-34 -6 -48 -20 -68 -62 -14 -32 -17 -98 -22 -543 l-5
-507 -49 45 c-26 25 -51 43 -54 39 -3 -3 -1 -9 4 -13 5 -5 33 -28 62 -51 44
-36 92 -102 92 -126 0 -3 -37 -5 -82 -5 -125 0 -86 -10 53 -14 68 -2 142 -6
164 -9 35 -5 36 -5 5 1 l-35 8 30 8 c17 5 68 12 115 16 l85 7 -70 1 c-39 1
-85 -2 -104 -8 -26 -7 -46 -5 -83 7 -42 13 -51 14 -59 2 -6 -10 -15 3 -34 45
l-26 59 3 501 c3 526 3 520 48 568 9 10 30 18 46 18 16 0 45 -1 64 -1 51 -2
204 11 210 18 4 4 -75 1 -200 -9 -14 -1 -34 0 -45 3 -11 3 -31 4 -45 2z"/>
<path d="M1035 2911 c3 -2 38 -5 78 -6 171 -5 161 -2 180 -36 9 -17 17 -36 17
-43 0 -7 7 -21 15 -32 13 -17 13 -16 3 16 -26 81 -40 100 -78 102 -83 4 -219
4 -215 -1z"/>
<path d="M1322 2707 c0 -35 3 -69 7 -75 4 -6 6 20 4 60 -3 89 -11 100 -11 15z"/>
<path d="M1322 2585 c0 -16 2 -22 5 -12 2 9 2 23 0 30 -3 6 -5 -1 -5 -18z"/>
<path d="M1324 2400 c0 -74 1 -105 3 -67 2 37 2 97 0 135 -2 37 -3 6 -3 -68z"/>
<path d="M1323 2225 c0 -22 2 -30 4 -17 2 12 2 30 0 40 -3 9 -5 -1 -4 -23z"/>
<path d="M1324 2040 c0 -80 2 -112 3 -72 2 39 2 105 0 145 -1 39 -3 7 -3 -73z"/>
<path d="M1150 1884 l-55 -13 50 5 c28 3 54 10 60 15 5 5 7 8 5 8 -3 -1 -30
-7 -60 -15z"/>
<path d="M998 1883 c17 -2 47 -2 65 0 17 2 3 4 -33 4 -36 0 -50 -2 -32 -4z"/>
<path d="M1325 1853 c-8 -54 -27 -113 -35 -113 -4 0 -10 -10 -13 -22 -6 -21
-9 -21 -129 -16 -74 3 -105 2 -78 -3 25 -4 79 -8 121 -8 86 -1 97 6 122 74 16
42 31 125 23 125 -3 0 -8 -17 -11 -37z"/>
<path d="M838 1873 c23 -2 61 -2 85 0 23 2 4 4 -43 4 -47 0 -66 -2 -42 -4z"/>
<path d="M5410 5004 c0 -34 45 -181 80 -259 74 -166 229 -349 376 -447 160
-107 351 -175 508 -183 l91 -4 -90 9 c-451 47 -826 371 -940 813 -13 51 -24
82 -25 71z"/>
<path d="M2590 143 c0 -5 250 -7 556 -5 410 2 560 0 570 -9 11 -9 14 -8 14 5
0 15 -51 16 -570 16 -313 0 -570 -3 -570 -7z"/>
</g>
</svg>
