<?xml version="1.0" standalone="no"?>
<!DOCTYPE svg PUBLIC "-//W3C//DTD SVG 20010904//EN"
 "http://www.w3.org/TR/2001/REC-SVG-20010904/DTD/svg10.dtd">
<svg version="1.0" xmlns="http://www.w3.org/2000/svg"
 width="900.000000pt" height="1174.000000pt" viewBox="0 0 900.000000 1174.000000"
 preserveAspectRatio="xMidYMid meet">

<g transform="translate(0.000000,1174.000000) scale(0.100000,-0.100000)"
fill="#000000" stroke="none">
<path d="M5731 11718 c-1 -24 -5 -26 -58 -32 -32 -3 -1313 -5 -2848 -3 l-2790
2 -3 -107 c-2 -70 1 -108 8 -108 6 0 10 36 10 95 l0 95 555 0 555 0 0 -83 0
-84 -242 -6 c-133 -4 -343 -7 -467 -7 l-226 0 3 -835 2 -835 -90 0 -90 0 0
825 c0 543 -3 825 -10 825 -7 0 -10 -282 -10 -825 0 -779 -1 -825 -17 -825
-17 -1 -17 -1 0 -11 16 -9 17 -45 17 -524 0 -481 -1 -514 -17 -518 -17 -4 -17
-5 0 -6 16 -1 17 -211 17 -4266 0 -2837 3 -4265 10 -4265 7 0 10 1428 10 4265
l0 4265 90 0 90 0 0 -2000 c0 -1771 -2 -2000 -15 -2000 -13 0 -15 -44 -15
-339 0 -293 2 -340 15 -345 14 -5 15 -219 15 -1918 0 -1052 0 -1921 0 -1930 0
-17 20 -18 269 -18 l270 0 0 -90 0 -90 -360 0 -359 1 0 94 c0 57 -4 95 -10 95
-6 0 -10 -42 -10 -105 l0 -105 4485 0 4485 0 0 5843 0 5842 -987 -3 c-544 -1
-1016 0 -1050 3 -57 6 -62 8 -66 33 l-4 27 -2 -27 -1 -28 -574 0 -575 0 -4 28
-4 27 -2 -27z m-3681 -68 c0 -7 -148 -10 -424 -10 -273 0 -427 4 -431 10 -4 7
140 10 424 10 281 0 431 -3 431 -10z m410 -57 c0 -122 15 -113 -190 -113 -153
0 -179 2 -184 16 -3 9 -6 49 -6 90 l0 74 190 0 190 0 0 -67z m880 57 c0 -7
-148 -10 -424 -10 -273 0 -427 4 -431 10 -4 7 140 10 424 10 281 0 431 -3 431
-10z m2328 -77 l-3 -88 -265 -3 -265 -2 3 -2057 2 -2057 -67 -68 -67 -68 -23
22 -23 21 0 2104 0 2103 -794 0 -794 0 -1 90 -2 90 1151 0 1151 0 -3 -87z m63
75 c0 -10 2 -10 6 0 4 9 129 12 579 12 504 0 574 -2 574 -15 0 -13 -73 -15
-600 -15 -527 0 -600 2 -600 15 0 18 40 20 41 3z m1199 -3 c0 -8 -7 -15 -15
-15 -8 0 -15 7 -15 15 0 8 7 15 15 15 8 0 15 -7 15 -15z m2060 -1335 l0 -1350
-86 0 -86 0 4 110 c2 85 0 111 -10 115 -8 3 -301 5 -653 5 l-639 0 0 -115 0
-115 -90 0 -90 0 2 1260 3 1260 -192 0 -191 0 -1 90 -1 90 1015 0 1015 0 0
-1350z m-7740 1260 l0 -60 -30 0 -30 0 0 60 0 60 30 0 30 0 0 -60z m740 35 l0
-25 -365 0 -365 0 0 25 0 25 365 0 365 0 0 -25z m60 -35 c0 -57 -1 -60 -25
-60 -24 0 -25 3 -25 60 0 57 1 60 25 60 24 0 25 -3 25 -60z m490 0 l0 -60 -30
0 -30 0 0 60 0 60 30 0 30 0 0 -60z m740 35 l0 -25 -365 0 -365 0 0 25 0 25
365 0 365 0 0 -25z m70 -35 l0 -60 -30 0 -30 0 0 60 0 60 30 0 30 0 0 -60z
m3540 -5 l0 -55 -600 0 -600 0 0 55 0 54 600 1 600 0 0 -55z m40 0 c0 -42 -3
-55 -15 -55 -12 0 -15 13 -15 55 0 42 3 55 15 55 12 0 15 -13 15 -55z m-4942
-27 l3 -28 -365 0 -366 0 0 30 0 30 363 -2 362 -3 3 -27z m1292 2 l0 -30 -365
0 -365 0 0 30 0 30 365 0 365 0 0 -30z m-1230 -50 c0 -7 -150 -10 -430 -10
-280 0 -430 3 -430 10 0 7 150 10 430 10 280 0 430 -3 430 -10z m1290 0 c0 -7
-150 -10 -430 -10 -280 0 -430 3 -430 10 0 7 150 10 430 10 280 0 430 -3 430
-10z m3590 0 c0 -7 -213 -10 -620 -10 -407 0 -620 3 -620 10 0 7 213 10 620
10 407 0 620 -3 620 -10z m-6580 -394 c0 -357 0 -365 -20 -371 -20 -6 -20 -13
-18 -413 l3 -407 408 -3 407 -2 0 377 0 376 551 -7 c409 -5 555 -4 565 5 22
18 1604 1 1611 -17 4 -11 50 -14 237 -14 127 0 369 -3 539 -7 l307 -6 0 -1671
0 -1670 46 -47 45 -46 -54 -73 c-30 -39 -76 -114 -101 -165 -45 -91 -96 -247
-96 -289 1 -11 12 20 25 70 26 101 70 210 118 288 39 63 107 156 116 156 3 0
176 -170 384 -378 l377 -377 -358 -358 -358 -357 -35 37 c-113 120 -199 281
-244 457 -13 50 -24 81 -25 70 0 -37 47 -188 84 -265 44 -92 117 -202 175
-264 l44 -47 356 356 c196 196 361 356 367 356 5 0 23 -13 39 -30 l29 -30 208
0 209 0 -1 -306 c-1 -168 1 -308 3 -310 2 -2 565 -4 1250 -4 l1247 0 0 -2743
0 -2742 -2837 1 -2838 1 -3 1692 -2 1691 2232 0 c1227 0 2233 2 2236 5 4 4
-1140 7 -2423 6 -165 0 -695 0 -1177 -1 l-878 0 0 -1700 0 -1700 -552 0 c-304
0 -570 3 -590 6 -35 6 -37 9 -47 58 l-10 51 5 -52 5 -53 -510 0 -510 0 -6 33
c-3 17 -5 139 -3 269 2 185 0 239 -10 243 -10 3 -12 55 -10 227 l3 223 90 -1
c90 -1 90 -1 30 8 -33 5 -70 11 -83 14 l-23 5 3 259 c2 202 0 261 -10 265 -10
3 -12 90 -10 407 l3 403 27 3 28 3 0 380 0 379 -30 0 -30 0 0 360 c0 198 -3
360 -7 360 -5 0 -7 -162 -5 -360 l2 -360 -40 0 -40 0 0 250 0 250 -55 0 -55 0
0 -250 0 -250 -75 0 c-41 0 -75 -3 -75 -7 0 -5 34 -7 75 -5 75 4 75 4 75 -22
0 -24 -3 -26 -50 -26 l-50 0 0 -320 0 -320 50 0 c47 0 50 -2 50 -25 0 -24 -2
-25 -77 -27 l-78 -2 75 -5 75 -6 3 -252 2 -253 55 0 55 0 2 253 3 252 37 3 38
3 0 -411 0 -410 -297 2 -298 3 -3 1143 -2 1142 291 0 c261 0 291 2 285 16 -3
9 -6 164 -6 345 l0 329 -285 0 -285 0 0 53 0 52 1352 0 1353 0 3 678 2 677
-1355 0 -1355 0 2 1273 c1 699 3 1253 5 1230 4 -37 7 -43 27 -43 l24 0 7 -675
7 -675 416 0 415 0 -8 675 c-5 495 -4 675 4 675 6 0 11 17 11 40 0 33 3 40 20
40 20 0 20 7 20 530 0 523 0 530 -20 530 -17 0 -20 7 -20 40 l0 40 -449 0
-450 0 -4 -42 c-2 -24 -4 329 -5 785 l-2 827 50 0 50 0 0 -364z m1470 -36 l0
-400 -342 2 -343 3 -3 33 -3 32 -385 0 -384 0 0 365 0 365 730 0 730 0 0 -400z
m410 -5 l0 -405 -195 0 -195 0 0 405 0 405 195 0 195 0 0 -405z m810 10 l0
-395 -395 0 -395 0 0 395 0 395 395 0 395 0 0 -395z m1890 385 c0 -7 -167 -8
-522 -4 -288 4 -525 8 -527 10 -2 2 233 4 522 4 354 0 527 -3 527 -10z m2378
-1900 l-3 -1910 743 0 742 0 0 -519 c0 -409 -3 -519 -12 -518 -35 1 -58 -4
-58 -13 0 -5 16 -10 35 -10 19 0 35 -4 35 -10 0 -7 -477 -10 -1412 -10 l-1413
0 -402 402 -403 403 0 2047 0 2048 1076 0 1075 0 -3 -1910z m-3448 1505 l0
-395 -400 0 -400 0 0 395 0 395 400 0 400 0 0 -395z m670 -20 l0 -405 -330 0
-330 0 0 405 0 405 330 0 330 0 0 -405z m408 -7 l-3 -403 -197 -3 -198 -2 0
405 0 405 200 0 200 0 -2 -402z m-4202 -378 l384 0 0 -370 0 -370 -397 2 -398
3 -3 394 c-2 309 0 396 10 403 9 5 14 -2 16 -27 l3 -35 385 0z m384 40 l0 -30
-375 0 c-325 0 -376 2 -381 15 -4 8 -4 22 0 30 5 13 56 15 381 15 l375 0 0
-30z m30 -845 l0 -35 -440 0 -440 0 0 35 0 35 440 0 440 0 0 -35z m-920 -566
l0 -519 -90 0 -90 0 0 513 c0 283 3 516 6 519 3 4 43 6 90 7 l84 0 0 -520z
m920 1 l0 -520 -440 0 -440 0 0 513 c0 283 3 517 7 520 3 4 201 7 440 7 l433
0 0 -520z m40 0 c0 -456 -2 -520 -15 -520 -13 0 -15 64 -15 513 0 283 3 517 7
520 3 4 10 7 15 7 4 0 8 -234 8 -520z m-933 -262 c-1 -145 -2 -29 -2 257 0
286 1 404 2 263 2 -141 2 -375 0 -520z m8533 42 l0 -100 -625 0 -625 0 0 100
0 100 625 0 625 0 0 -100z m-1272 -452 l2 -338 -47 -2 -48 -1 45 -6 45 -6 3
-172 2 -173 -45 0 c-92 0 -30 -24 80 -31 6 0 63 3 128 7 l117 7 0 -91 0 -92
-230 0 -230 0 0 620 0 621 88 -3 87 -3 3 -337z m282 3 l0 -341 -130 0 -130 0
0 338 0 339 130 2 130 2 0 -340z m250 -1 l0 -340 -120 0 -120 0 0 340 0 340
120 0 120 0 0 -340z m250 0 l0 -340 -120 0 -120 0 0 340 0 340 120 0 120 0 0
-340z m250 0 l0 -340 -120 0 -120 0 0 340 0 340 120 0 120 0 0 -340z m240 -2
l0 -338 -115 0 -115 0 0 341 0 340 115 -2 115 -2 0 -339z m200 2 l0 -340 -85
0 -85 0 0 333 c0 184 3 337 7 340 3 4 42 7 85 7 l78 0 0 -340z m-7840 105 l0
-35 -440 0 -440 0 0 35 0 35 440 0 440 0 0 -35z m-20 -375 l0 -330 -405 0
-405 0 0 330 0 330 405 0 405 0 0 -330z m6670 -254 l0 -176 -130 0 -130 0 0
173 0 174 130 2 130 2 0 -175z m250 -1 l0 -175 -120 0 -120 0 0 175 0 175 120
0 120 0 0 -175z m250 0 l0 -175 -120 0 -120 0 0 175 0 175 120 0 120 0 0 -175z
m250 0 l0 -175 -120 0 -120 0 0 175 0 175 120 0 120 0 0 -175z m240 -2 l0
-173 -115 0 -115 0 0 176 0 175 115 -2 115 -2 0 -174z m200 99 c0 -78 0 -78
-40 -117 -36 -35 -51 -65 -33 -65 4 0 22 14 40 32 l33 32 0 -110 0 -109 -84
-84 c-66 -65 -85 -79 -90 -66 -11 29 6 549 18 557 6 4 44 8 84 8 l72 0 0 -78z
m-7850 -522 l0 -330 -405 0 -405 0 0 330 0 330 405 0 405 0 0 -330z m6910 140
l0 -90 -120 0 -120 0 0 85 0 84 108 4 c59 1 113 4 120 5 9 1 12 -22 12 -88z
m168 83 l82 -6 0 -83 0 -84 -120 0 -120 0 0 83 c0 46 3 87 7 90 8 9 45 9 151
0z m330 -85 l3 -88 -121 0 -120 0 0 84 0 85 48 4 c26 2 79 3 117 3 l70 -1 3
-87z m252 -3 l0 -85 -120 0 -120 0 0 85 0 85 120 0 120 0 0 -85z m185 -314
c-7 -6 -165 152 -165 165 0 4 37 45 83 91 l82 84 3 -167 c1 -92 0 -170 -3
-173z m-1185 184 c0 -13 -33 -15 -237 -13 -176 2 -237 6 -240 15 -4 10 50 13
236 13 206 0 241 -3 241 -15z m250 0 c0 -12 -20 -15 -120 -15 -100 0 -120 3
-120 15 0 13 20 15 120 15 100 0 120 -2 120 -15z m250 0 c0 -12 -20 -15 -120
-15 -100 0 -120 3 -120 15 0 13 20 15 120 15 100 0 120 -2 120 -15z m250 0 c0
-12 -20 -15 -120 -15 -100 0 -120 3 -120 15 0 13 20 15 120 15 100 0 120 -2
120 -15z m240 1 c0 -11 -24 -14 -115 -15 -98 -2 -115 1 -115 14 0 13 18 15
115 15 92 0 115 -3 115 -14z m200 -3928 l0 -3718 -679 0 -680 0 0 90 0 90 592
2 592 3 3 2763 2 2762 -22 1 c-13 1 -48 2 -78 3 l-55 1 -2 87 -3 87 78 3 77 3
0 220 0 220 -1162 3 -1163 2 0 -225 0 -225 480 0 480 0 0 -90 0 -90 -571 0
-570 0 1 48 c1 26 1 167 1 315 l-1 267 -220 0 c-181 0 -220 2 -220 14 0 7 29
41 65 75 36 33 65 67 65 76 0 13 148 15 1408 15 l1407 -1 3 21 c3 17 11 20 58
20 60 0 75 19 17 22 -21 0 -46 1 -55 0 -17 -2 -18 29 -18 509 l0 510 85 -82
85 -82 0 -3719z m-3420 3187 c222 -222 401 -408 397 -412 -4 -4 -193 177 -419
402 -226 226 -407 404 -403 397 9 -17 -54 -85 -72 -78 -7 3 -10 -1 -7 -8 7
-18 -22 -41 -31 -25 -8 12 101 129 120 129 5 0 192 -182 415 -405z m317 -432
l-37 -38 -375 375 c-206 206 -375 379 -375 384 0 6 14 25 32 43 l32 34 381
-381 380 -380 -38 -37z m-50 -48 c-2 -5 -10 -11 -18 -13 -8 -1 -182 166 -388
372 -332 332 -373 377 -361 391 12 15 56 -26 392 -362 208 -208 377 -382 375
-388z m109 64 c3 -6 -10 -27 -30 -47 -28 -29 -38 -34 -48 -24 -9 9 -5 20 22
47 36 38 45 41 56 24z m-81 -90 c0 -7 -8 -15 -17 -17 -18 -3 -25 18 -11 32 10
10 28 1 28 -15z m2925 -284 l0 -195 -1140 0 -1140 0 0 195 0 195 1140 0 1140
0 0 -195z m-5840 -605 l0 -670 -1342 2 -1343 3 -3 668 -2 667 1345 0 1345 0 0
-670z m4560 335 c0 -33 -4 -45 -15 -45 -11 0 -15 12 -15 45 0 33 4 45 15 45
11 0 15 -12 15 -45z m1130 0 l0 -45 -560 0 -560 0 0 45 0 45 560 0 560 0 0
-45z m-1130 -95 c0 -29 -4 -40 -15 -40 -11 0 -15 11 -15 40 0 29 4 40 15 40
11 0 15 -11 15 -40z m1128 2 l-3 -37 -555 0 -555 0 -3 38 -3 37 561 0 561 -1
-3 -37z m-8408 -1362 c0 -213 -4 -330 -10 -330 -6 0 -10 117 -10 330 0 213 4
330 10 330 6 0 10 -117 10 -330z m580 0 l0 -330 -280 0 -280 0 0 330 0 330
280 0 280 0 0 -330z m-50 -1445 l0 -875 -45 0 -45 0 0 875 0 875 45 0 45 0 0
-875z m90 350 c0 -22 -4 -25 -40 -25 -36 0 -40 3 -40 25 0 23 4 25 40 25 36 0
40 -2 40 -25z m60 -345 l0 -370 -22 0 -23 0 0 370 0 370 23 0 22 0 0 -370z
m-252 -2 l2 -308 -45 0 -45 0 0 311 0 310 43 -3 42 -3 3 -307z m192 2 l0 -310
-40 0 -40 0 0 303 c0 167 3 307 7 310 3 4 21 7 40 7 l33 0 0 -310z m0 -345 c0
-22 -4 -25 -40 -25 -36 0 -40 3 -40 25 0 23 4 25 40 25 36 0 40 -2 40 -25z
m-16 -871 c14 -5 16 -37 16 -254 0 -217 -2 -249 -16 -254 -9 -3 -138 -6 -288
-6 -198 0 -275 3 -284 12 -9 9 -12 78 -12 250 0 215 2 238 18 247 18 11 539
16 566 5z m16 -755 l0 -229 -297 2 -298 3 -3 215 c-1 118 0 220 3 228 4 10 66
12 300 12 l295 -1 0 -230z m-30 -249 c0 -5 7 -7 15 -4 13 5 15 -25 15 -234 l0
-241 -297 2 -298 2 -3 229 c-2 160 1 233 9 242 9 11 65 14 285 14 170 0 274
-4 274 -10z m45 -490 c-3 -5 -14 -10 -23 -9 -14 0 -13 2 3 9 27 11 27 11 20 0z
m-45 -14 c0 -7 -14 -16 -31 -20 -45 -9 -538 -6 -514 3 19 8 19 8 0 19 -15 9
47 11 263 12 233 0 282 -2 282 -14z m1090 -66 c0 -20 -5 -20 -560 -20 -550 0
-560 0 -560 20 0 19 10 19 560 20 555 0 560 0 560 -20z m40 0 c0 -11 -7 -20
-15 -20 -8 0 -15 9 -15 20 0 11 7 20 15 20 8 0 15 -9 15 -20z m2090 -70 l0
-90 -1030 0 -1029 0 0 90 0 90 1030 0 1029 0 0 -90z m3565 80 c-9 -14 -3535
-14 -3535 0 0 7 597 10 1771 10 1177 0 1768 -3 1764 -10z m-3505 -80 c0 -53
-2 -60 -20 -60 -18 0 -20 7 -20 60 0 53 2 60 20 60 18 0 20 -7 20 -60z m1120
0 l0 -60 -555 0 -555 0 0 60 0 60 555 0 555 0 0 -60z m50 0 c0 -53 -2 -60 -20
-60 -18 0 -20 7 -20 60 0 53 2 60 20 60 18 0 20 -7 20 -60z m1120 0 l0 -60
-555 0 -555 0 0 60 0 60 555 0 555 0 0 -60z m50 0 c0 -53 -2 -60 -20 -60 -18
0 -20 7 -20 60 0 53 2 60 20 60 18 0 20 -7 20 -60z m1120 0 l0 -60 -555 0
-555 0 0 60 0 60 555 0 555 0 0 -60z m50 0 c0 -53 -2 -60 -20 -60 -18 0 -20 7
-20 60 0 53 2 60 20 60 18 0 20 -7 20 -60z m-5700 -10 l0 -50 -560 0 -560 0 0
50 0 49 560 1 560 0 0 -50z m40 0 c0 -38 -4 -50 -15 -50 -11 0 -15 12 -15 50
0 38 4 50 15 50 11 0 15 -12 15 -50z m0 -70 c0 -7 -200 -10 -580 -10 -380 0
-580 3 -580 10 0 7 200 10 580 10 380 0 580 -3 580 -10z m5660 0 c0 -7 -597
-10 -1770 -10 -1173 0 -1770 3 -1770 10 0 7 597 10 1770 10 1173 0 1770 -3
1770 -10z"/>
<path d="M8160 11482 l-645 -2 3 -1048 c1 -576 4 -1053 7 -1059 3 -10 141 -13
642 -13 351 0 643 4 648 8 10 7 5 2107 -5 2114 -3 2 -295 2 -650 0z m630
-1057 l0 -1035 -625 0 -625 0 0 1035 0 1035 625 0 625 0 0 -1035z"/>
<path d="M4772 6590 c0 -19 2 -27 5 -17 2 9 2 25 0 35 -3 9 -5 1 -5 -18z"/>
<path d="M4764 6450 c0 -58 1 -81 3 -52 2 28 2 76 0 105 -2 28 -3 5 -3 -53z"/>
<path d="M4772 6310 c0 -19 2 -27 5 -17 2 9 2 25 0 35 -3 9 -5 1 -5 -18z"/>
<path d="M7522 5660 c0 -19 2 -27 5 -17 2 9 2 25 0 35 -3 9 -5 1 -5 -18z"/>
<path d="M7532 5600 c0 -14 2 -19 5 -12 2 6 2 18 0 25 -3 6 -5 1 -5 -13z"/>
<path d="M7541 5554 c0 -11 3 -14 6 -6 3 7 2 16 -1 19 -3 4 -6 -2 -5 -13z"/>
<path d="M7551 5524 c-2 -19 36 -120 71 -191 138 -279 381 -482 682 -568 48
-14 98 -25 110 -25 11 1 -19 12 -69 25 -122 32 -166 49 -255 96 -244 132 -422
342 -515 608 -13 36 -24 61 -24 55z"/>
<path d="M8485 4730 c66 -11 115 -12 115 -2 0 4 -37 8 -83 8 -73 2 -77 1 -32
-6z"/>
<path d="M4790 3989 c0 -5 5 -7 10 -4 6 3 10 8 10 11 0 2 -4 4 -10 4 -5 0 -10
-5 -10 -11z"/>
<path d="M4970 3150 c0 -5 5 -10 10 -10 6 0 10 5 10 10 0 6 -4 10 -10 10 -5 0
-10 -4 -10 -10z"/>
<path d="M6230 2910 c0 -5 5 -10 11 -10 5 0 7 5 4 10 -3 6 -8 10 -11 10 -2 0
-4 -4 -4 -10z"/>
<path d="M4880 2605 l0 -305 683 2 682 3 -678 2 -678 3 3 300 c2 165 0 300 -4
300 -5 0 -8 -137 -8 -305z"/>
<path d="M1058 1213 c7 -3 16 -2 19 1 4 3 -2 6 -13 5 -11 0 -14 -3 -6 -6z"/>
<path d="M1098 1203 c7 -3 16 -2 19 1 4 3 -2 6 -13 5 -11 0 -14 -3 -6 -6z"/>
<path d="M1230 1157 c256 -103 457 -293 581 -549 22 -46 37 -72 33 -58 -4 14
-21 55 -40 91 -122 244 -337 440 -587 534 -110 41 -101 28 13 -18z"/>
<path d="M1856 500 c4 -14 15 -56 25 -95 10 -38 18 -62 18 -51 1 24 -28 137
-40 156 -7 11 -8 8 -3 -10z"/>
<path d="M7300 7360 c0 -60 4 -100 10 -100 6 0 10 40 10 100 0 60 -4 100 -10
100 -6 0 -10 -40 -10 -100z"/>
<path d="M7300 6981 c0 -56 4 -103 10 -106 6 -4 10 32 10 99 0 64 -4 106 -10
106 -6 0 -10 -40 -10 -99z"/>
<path d="M7300 6640 l0 -60 55 0 c65 0 74 17 13 22 l-43 3 -3 48 c-4 68 -22
58 -22 -13z"/>
<path d="M7580 6590 c0 -6 42 -10 105 -10 63 0 105 4 105 10 0 6 -42 10 -105
10 -63 0 -105 -4 -105 -10z"/>
<path d="M7960 6590 c0 -6 42 -10 105 -10 63 0 105 4 105 10 0 6 -42 10 -105
10 -63 0 -105 -4 -105 -10z"/>
<path d="M8340 6590 c0 -6 42 -10 105 -10 63 0 105 4 105 10 0 6 -42 10 -105
10 -63 0 -105 -4 -105 -10z"/>
</g>
</svg>
